<svg width="53" height="53" viewBox="0 0 53 53" fill="none" xmlns="http://www.w3.org/2000/svg">
<path d="M0 27.4055C0 26.6208 0 25.8361 0 25.0514C0.0321358 24.6988 0.0701134 24.3461 0.0993278 23.9934C0.30675 21.4189 0.87935 18.9238 1.84635 16.5315C4.1981 10.7065 8.11575 6.26286 13.5759 3.21225C16.5938 1.5253 19.8336 0.52019 23.2663 0.155763C23.8126 0.0969844 24.359 0.0529008 24.9023 0C25.6824 0 26.4624 0 27.2424 0C27.3213 0.0146947 27.3972 0.0382014 27.4761 0.0411404C28.8083 0.102858 30.1259 0.270383 31.4259 0.552521C37.0263 1.76924 41.7912 4.48187 45.554 8.82561C51.1807 15.3236 53.2315 22.8884 51.6218 31.3408C50.2663 38.4559 46.4392 44.0281 40.4765 48.0839C36.965 50.4732 33.0707 51.8574 28.8521 52.3071C28.3146 52.3629 27.7799 52.41 27.2424 52.4599H24.9023C24.7972 52.4452 24.6949 52.4188 24.5897 52.4129C21.9984 52.2748 19.4772 51.7605 17.0495 50.8406C11.2329 48.6334 6.72515 44.8334 3.55831 39.4522C1.6623 36.2341 0.540463 32.7485 0.151912 29.0249C0.0964042 28.4871 0.0496644 27.9463 0 27.4085V27.4055ZM44.5227 16.9518C38.376 20.0435 32.2468 23.1235 26.0592 26.2329V5.46935C14.3326 5.43408 5.29364 15.303 5.45724 26.1741C6.04737 26.1741 6.64043 26.1741 7.23056 26.1741C7.33281 26.1741 7.43506 26.2123 7.53731 26.2182C7.69507 26.227 7.75057 26.3299 7.70383 26.4504C7.67754 26.518 7.55776 26.5914 7.4818 26.5944C6.90628 26.6061 6.32784 26.6003 5.75231 26.6003C5.65006 26.6003 5.54781 26.6003 5.44556 26.6003C5.62085 38.644 15.9481 47.4961 26.6581 46.9524C26.6581 46.25 26.6581 45.5476 26.6581 44.8451C26.6581 44.757 26.6464 44.6482 26.6932 44.5895C26.7516 44.5131 26.8568 44.4602 26.9532 44.4396C26.9795 44.4337 27.0759 44.5718 27.0788 44.6453C27.0905 45.1361 27.0847 45.6269 27.0847 46.1177C27.0847 46.391 27.0847 46.6644 27.0847 46.9406C37.3944 46.5909 46.0506 37.9886 46.632 27.7817C46.5093 27.7817 46.3866 27.7729 46.2639 27.7817C45.9075 27.8111 45.5511 27.864 45.1946 27.8758C45.0603 27.8816 44.8149 27.9992 44.8119 27.7082C44.809 27.432 45.0457 27.4849 45.2151 27.4584C45.2589 27.4526 45.3027 27.4584 45.3466 27.4584C45.7877 27.4173 46.2288 27.3732 46.6904 27.3291C46.8628 23.679 46.1441 20.2345 44.5227 16.9518Z" fill="#FDB90F"/>
<path d="M45.2125 27.4589C45.2563 27.453 45.3001 27.4589 45.344 27.4589C45.7851 27.4178 46.2262 27.3737 46.6878 27.3296C46.8602 23.6794 46.1415 20.235 44.5201 16.9522C38.3734 20.044 32.2442 23.124 26.0566 26.2334V5.46982C14.33 5.43455 5.29105 15.3035 5.45465 26.1746C6.04478 26.1746 6.63783 26.1746 7.22796 26.1746C7.33021 26.1746 7.43246 26.2128 7.53471 26.2187C7.69247 26.2275 7.74798 26.3304 7.70124 26.4509C7.67494 26.5185 7.55516 26.5919 7.47921 26.5949C6.90368 26.6066 6.32524 26.6007 5.74971 26.6007H5.44296C5.61825 38.6445 15.9455 47.4965 26.6555 46.9528C26.6555 46.2504 26.6555 45.548 26.6555 44.8456C26.6555 44.7575 26.6438 44.6487 26.6906 44.5899C26.749 44.5135 26.8542 44.4606 26.9506 44.4401C26.9769 44.4342 27.0733 44.5723 27.0762 44.6458C27.0879 45.1366 27.0821 45.6274 27.0821 46.1182C27.0821 46.3915 27.0821 46.6648 27.0821 46.9411C37.3918 46.5914 46.048 37.9891 46.6294 27.7822C46.5067 27.7822 46.384 27.7734 46.2613 27.7822C45.9049 27.8116 45.5485 27.8645 45.192 27.8762C45.0577 27.8821 44.8123 27.9997 44.8093 27.7087C44.8064 27.4325 45.0431 27.4854 45.2125 27.4589Z" fill="white"/>
<path d="M7.73595 27.1082H3.93808C3.61672 27.1082 3.35379 26.8437 3.35379 26.5204C3.35379 26.1971 3.61672 25.9326 3.93808 25.9326H7.73595C8.0573 25.9326 8.32023 26.1971 8.32023 26.5204C8.32023 26.8437 8.0573 27.1082 7.73595 27.1082Z" fill="#FDB90F"/>
<path d="M48.6362 27.991H44.8383C44.5169 27.991 44.254 27.7265 44.254 27.4032C44.254 27.0799 44.5169 26.8154 44.8383 26.8154H48.6362C48.9575 26.8154 49.2204 27.0799 49.2204 27.4032C49.2204 27.7265 48.9575 27.991 48.6362 27.991Z" fill="#FDB90F"/>
<path d="M26.4332 48.7092V44.8886C26.4332 44.5653 26.6961 44.3008 27.0175 44.3008C27.3388 44.3008 27.6017 44.5653 27.6017 44.8886V48.7092C27.6017 49.0325 27.3388 49.297 27.0175 49.297C26.6961 49.297 26.4332 49.0325 26.4332 48.7092Z" fill="#FDB90F"/>
</svg>
