<svg width="275" height="70" viewBox="0 0 275 70" fill="none" xmlns="http://www.w3.org/2000/svg">
<path d="M96.038 24.1621H98.3167V40.532H96.038V32.973H88.0771V40.532H85.7983V24.1621H88.0771V30.9893H96.038V24.1621Z" fill="#151515"/>
<path d="M112.991 34.3894C112.991 35.3651 112.851 36.2468 112.567 37.0345C112.287 37.8221 111.89 38.498 111.381 39.0653C110.873 39.6325 110.265 40.0704 109.561 40.376C108.857 40.6817 108.089 40.8374 107.259 40.8374C106.429 40.8374 105.661 40.6846 104.957 40.376C104.253 40.0674 103.645 39.6325 103.137 39.0653C102.629 38.498 102.234 37.8221 101.951 37.0345C101.67 36.2468 101.527 35.3651 101.527 34.3894C101.527 33.4137 101.667 32.5496 101.951 31.7561C102.231 30.9626 102.629 30.2808 103.137 29.7136C103.645 29.1464 104.253 28.7085 104.957 28.4028C105.661 28.0942 106.429 27.9414 107.259 27.9414C108.089 27.9414 108.857 28.0942 109.561 28.4028C110.265 28.7085 110.873 29.1464 111.381 29.7136C111.89 30.2808 112.284 30.9626 112.567 31.7561C112.848 32.5526 112.991 33.4313 112.991 34.3894ZM110.715 34.3894C110.715 33.0052 110.406 31.906 109.786 31.0949C109.167 30.2837 108.325 29.8782 107.262 29.8782C106.199 29.8782 105.357 30.2837 104.738 31.0949C104.119 31.906 103.812 33.0052 103.812 34.3894C103.812 35.7737 104.121 36.8728 104.738 37.684C105.357 38.4951 106.199 38.9007 107.262 38.9007C108.325 38.9007 109.167 38.4951 109.786 37.684C110.406 36.8728 110.715 35.7737 110.715 34.3894Z" fill="#151515"/>
<path d="M125.789 40.1801C125.287 40.3065 124.627 40.4387 123.806 40.5827C122.985 40.7238 122.032 40.7943 120.951 40.7943C120.011 40.7943 119.222 40.6562 118.579 40.38C117.936 40.1037 117.419 39.7158 117.028 39.2103C116.636 38.7077 116.356 38.1111 116.184 37.4263C116.011 36.7416 115.926 35.9804 115.926 35.1457V28.248H118.112V34.6726C118.112 36.1685 118.345 37.2412 118.816 37.8848C119.286 38.5314 120.075 38.8547 121.188 38.8547C121.422 38.8547 121.664 38.8458 121.915 38.8311C122.167 38.8164 122.4 38.7959 122.619 38.7724C122.839 38.7489 123.037 38.7253 123.218 38.7018C123.399 38.6783 123.528 38.6519 123.607 38.6195V28.248H125.792V40.1772L125.789 40.1801Z" fill="#151515"/>
<path d="M134.058 27.9893C134.245 27.9893 134.461 28.001 134.703 28.0245C134.946 28.048 135.185 28.0804 135.419 28.1186C135.653 28.1568 135.869 28.1979 136.065 28.2361C136.26 28.2743 136.407 28.3096 136.5 28.3419L136.123 30.2552C135.951 30.1935 135.664 30.117 135.267 30.0318C134.867 29.9466 134.356 29.9025 133.731 29.9025C133.324 29.9025 132.921 29.9466 132.521 30.0318C132.121 30.12 131.861 30.1788 131.735 30.2081V40.5326H129.55V28.7681C130.067 28.58 130.71 28.4007 131.475 28.2361C132.244 28.0715 133.102 27.9893 134.058 27.9893Z" fill="#151515"/>
<path d="M142.275 40.7703C140.928 40.738 139.973 40.447 139.409 39.8975C138.845 39.3449 138.565 38.4868 138.565 37.3229V22.5813L140.75 22.2021V36.9673C140.75 37.3288 140.782 37.6286 140.844 37.8637C140.905 38.0988 141.007 38.2899 141.148 38.4309C141.288 38.572 141.478 38.6778 141.711 38.7513C141.945 38.8218 142.234 38.8806 142.579 38.9276L142.275 40.7703Z" fill="#151515"/>
<path d="M143.59 42.8251C143.762 42.9045 143.984 42.978 144.259 43.0485C144.534 43.119 144.802 43.1543 145.068 43.1543C145.93 43.1543 146.602 42.9603 147.087 42.5753C147.572 42.1903 148.01 41.5643 148.402 40.6974C147.414 38.8076 146.497 36.8033 145.644 34.6843C144.791 32.5653 144.081 30.4199 143.517 28.248H145.866C146.038 28.9563 146.246 29.7205 146.488 30.5404C146.731 31.3604 146.999 32.2009 147.297 33.0679C147.595 33.9349 147.917 34.8019 148.261 35.6659C148.606 36.5329 148.966 37.3676 149.342 38.1699C149.938 36.5153 150.453 34.8783 150.894 33.256C151.332 31.6337 151.747 29.9644 152.138 28.248H154.394C153.83 30.5639 153.205 32.7887 152.515 34.9224C151.826 37.056 151.084 39.0516 150.283 40.9119C149.971 41.6202 149.646 42.2315 149.307 42.7429C148.971 43.2542 148.597 43.6774 148.191 44.0066C147.785 44.3387 147.327 44.5826 146.818 44.7384C146.31 44.8971 145.734 44.9735 145.092 44.9735C144.919 44.9735 144.738 44.9618 144.551 44.9382C144.364 44.9147 144.18 44.8824 143.999 44.8442C143.818 44.806 143.654 44.7619 143.505 44.7149C143.356 44.6679 143.251 44.6267 143.187 44.5973L143.587 42.8251H143.59Z" fill="#151515"/>
<path d="M160.71 38.3133C161.773 38.3133 162.55 38.1311 163.035 37.7696C163.52 37.4081 163.763 36.8967 163.763 36.2355C163.763 35.8416 163.681 35.5037 163.517 35.2186C163.354 34.9364 163.117 34.6808 162.813 34.4515C162.509 34.2223 162.135 34.0107 161.697 33.8138C161.259 33.6169 160.759 33.4229 160.196 33.2348C159.632 33.0291 159.088 32.8057 158.562 32.5618C158.037 32.3179 157.575 32.0151 157.178 31.6507C156.777 31.2892 156.456 30.8543 156.214 30.3517C155.971 29.8492 155.848 29.2408 155.848 28.5325C155.848 27.0513 156.357 25.8904 157.373 25.0469C158.39 24.2035 159.778 23.7832 161.531 23.7832C162.547 23.7832 163.453 23.8978 164.242 24.1271C165.033 24.3563 165.656 24.6032 166.109 24.8706L165.194 27.2805C164.662 26.9808 164.078 26.7545 163.444 26.5958C162.81 26.4371 162.156 26.3606 161.484 26.3606C160.686 26.3606 160.064 26.5252 159.617 26.8573C159.17 27.1894 158.948 27.6538 158.948 28.2504C158.948 28.6119 159.021 28.9234 159.17 29.185C159.319 29.4436 159.529 29.6787 159.804 29.8815C160.079 30.0872 160.4 30.2753 160.768 30.4487C161.136 30.6221 161.539 30.7867 161.978 30.9454C162.746 31.2275 163.43 31.5155 164.031 31.8065C164.633 32.0974 165.142 32.4442 165.559 32.8469C165.974 33.2495 166.29 33.7197 166.512 34.2634C166.731 34.8071 166.842 35.4655 166.842 36.2355C166.842 37.7167 166.322 38.8629 165.279 39.674C164.239 40.4851 162.714 40.8907 160.713 40.8907C160.041 40.8907 159.424 40.8466 158.869 40.7614C158.314 40.6732 157.82 40.5674 157.391 40.4411C156.962 40.3147 156.588 40.1854 156.275 40.0502C155.962 39.9179 155.711 39.7945 155.524 39.6828L156.392 37.2494C156.815 37.4845 157.385 37.7225 158.107 37.9577C158.825 38.1928 159.696 38.3133 160.713 38.3133H160.71Z" fill="#FDB90F"/>
<path d="M169.161 24.9175L172.003 24.4443V28.1768H176.371V30.5632H172.003V35.5946C172.003 36.588 172.158 37.2963 172.474 37.7195C172.786 38.1456 173.318 38.3572 174.072 38.3572C174.589 38.3572 175.044 38.3014 175.445 38.1927C175.845 38.0839 176.16 37.9811 176.397 37.887L176.867 40.1559C176.537 40.2969 176.108 40.4439 175.576 40.5938C175.044 40.7436 174.416 40.8171 173.698 40.8171C172.821 40.8171 172.088 40.6996 171.501 40.4615C170.914 40.2264 170.449 39.8825 170.104 39.4329C169.76 38.9832 169.517 38.4395 169.377 37.8018C169.237 37.164 169.166 36.4352 169.166 35.6181V24.9175H169.161Z" fill="#FDB90F"/>
<path d="M183.205 27.8721C184.146 27.8721 184.934 27.9896 185.577 28.2277C186.22 28.4628 186.731 28.7949 187.114 29.221C187.496 29.6472 187.771 30.1615 187.935 30.7699C188.098 31.3753 188.18 32.0424 188.18 32.7654V40.2538C187.742 40.3478 187.079 40.4625 186.196 40.5976C185.311 40.7299 184.312 40.7975 183.202 40.7975C182.466 40.7975 181.794 40.727 181.183 40.5859C180.573 40.4448 180.053 40.2156 179.62 39.9011C179.191 39.5867 178.852 39.1781 178.609 38.6726C178.367 38.1701 178.244 37.547 178.244 36.8064C178.244 36.0658 178.382 35.4986 178.656 35.0107C178.931 34.5229 179.302 34.1261 179.772 33.8175C180.242 33.5119 180.786 33.2915 181.405 33.1563C182.025 33.0211 182.67 32.9564 183.342 32.9564C183.655 32.9564 183.985 32.977 184.33 33.0152C184.674 33.0534 185.042 33.121 185.434 33.2151V32.7419C185.434 32.4098 185.396 32.0953 185.317 31.7985C185.238 31.4987 185.101 31.2342 184.905 31.0079C184.709 30.7787 184.452 30.6023 184.131 30.476C183.81 30.3496 183.406 30.2879 182.921 30.2879C182.264 30.2879 181.662 30.3349 181.113 30.4289C180.564 30.523 180.12 30.6347 179.775 30.761L179.422 28.4452C179.781 28.3188 180.307 28.1924 180.996 28.066C181.686 27.9397 182.422 27.878 183.205 27.878V27.8721ZM183.441 38.5257C184.318 38.5257 184.984 38.4787 185.437 38.3846V35.2194C185.279 35.1724 185.054 35.1254 184.756 35.0783C184.458 35.0313 184.131 35.0078 183.769 35.0078C183.456 35.0078 183.138 35.0313 182.816 35.0783C182.495 35.1254 182.206 35.2135 181.949 35.337C181.691 35.4633 181.481 35.6397 181.326 35.8689C181.169 36.0981 181.093 36.3862 181.093 36.73C181.093 37.406 181.303 37.8762 181.727 38.1348C182.15 38.3934 182.72 38.5257 183.441 38.5257Z" fill="#FDB90F"/>
<path d="M201.382 28.1768C200.117 32.8702 198.647 37.1229 196.976 40.9347C196.663 41.6429 196.342 42.2484 196.012 42.7539C195.682 43.2564 195.314 43.6737 194.908 44.0058C194.499 44.3379 194.046 44.576 193.543 44.7259C193.041 44.8758 192.462 44.9492 191.805 44.9492C191.367 44.9492 190.932 44.9022 190.499 44.8082C190.067 44.7141 189.743 44.6113 189.523 44.5025L190.041 42.2102C190.607 42.4306 191.165 42.5423 191.715 42.5423C192.454 42.5423 193.032 42.3659 193.447 42.0103C193.865 41.6547 194.23 41.1081 194.543 40.3674C193.646 38.6364 192.787 36.7467 191.96 34.6982C191.133 32.6498 190.4 30.4779 189.754 28.1768H192.784C192.942 28.838 193.134 29.5551 193.362 30.3251C193.59 31.0981 193.838 31.8798 194.104 32.6763C194.37 33.4727 194.654 34.2633 194.952 35.0509C195.25 35.8386 195.547 36.5703 195.848 37.2492C196.348 35.8474 196.815 34.3544 197.251 32.7733C197.686 31.1892 198.083 29.658 198.443 28.1797H201.379L201.382 28.1768Z" fill="#FDB90F"/>
<path d="M206.196 39.2569C206.196 39.6831 206.056 40.0534 205.773 40.3679C205.489 40.6823 205.107 40.841 204.622 40.841C204.137 40.841 203.754 40.6823 203.471 40.3679C203.19 40.0534 203.047 39.6831 203.047 39.2569C203.047 38.8308 203.187 38.4605 203.471 38.146C203.751 37.8316 204.137 37.6729 204.622 37.6729C205.107 37.6729 205.489 37.8316 205.773 38.146C206.053 38.4605 206.196 38.8308 206.196 39.2569Z" fill="#151515"/>
<path d="M214.695 40.8169C213.708 40.8169 212.843 40.6582 212.101 40.3437C211.356 40.0292 210.731 39.5884 210.222 39.0212C209.714 38.454 209.334 37.7809 209.083 37.0021C208.832 36.2233 208.706 35.3593 208.706 34.4159C208.706 33.4725 208.843 32.6055 209.118 31.8179C209.393 31.0302 209.778 30.3484 210.281 29.7753C210.78 29.1993 211.397 28.7525 212.124 28.4293C212.852 28.106 213.661 27.9443 214.555 27.9443C215.101 27.9443 215.65 27.9914 216.2 28.0854C216.749 28.1795 217.272 28.3293 217.774 28.5351L217.281 30.4013C216.95 30.2426 216.571 30.1191 216.141 30.0222C215.712 29.9281 215.253 29.8811 214.768 29.8811C213.547 29.8811 212.612 30.2661 211.961 31.039C211.312 31.812 210.985 32.9376 210.985 34.4159C210.985 35.0771 211.058 35.6825 211.207 36.2351C211.356 36.7876 211.59 37.2578 211.911 37.6516C212.232 38.0454 212.641 38.3482 213.144 38.5627C213.643 38.7743 214.254 38.883 214.976 38.883C215.554 38.883 216.08 38.8272 216.55 38.7185C217.021 38.6097 217.389 38.4892 217.654 38.3629L217.958 40.2056C217.833 40.2849 217.654 40.3584 217.418 40.4289C217.184 40.4995 216.915 40.5612 216.62 40.617C216.322 40.6729 216.007 40.7199 215.668 40.7581C215.332 40.7963 215.008 40.8169 214.692 40.8169H214.695Z" fill="#151515"/>
<path d="M230.783 34.3894C230.783 35.3651 230.642 36.2468 230.359 37.0345C230.079 37.8221 229.681 38.498 229.173 39.0653C228.665 39.6325 228.057 40.0704 227.353 40.376C226.649 40.6817 225.881 40.8374 225.051 40.8374C224.221 40.8374 223.453 40.6846 222.749 40.376C222.045 40.0674 221.437 39.6325 220.929 39.0653C220.42 38.498 220.026 37.8221 219.743 37.0345C219.462 36.2468 219.319 35.3651 219.319 34.3894C219.319 33.4137 219.459 32.5496 219.743 31.7561C220.023 30.9626 220.42 30.2808 220.929 29.7136C221.437 29.1464 222.045 28.7085 222.749 28.4028C223.453 28.0942 224.221 27.9414 225.051 27.9414C225.881 27.9414 226.649 28.0942 227.353 28.4028C228.057 28.7085 228.665 29.1464 229.173 29.7136C229.681 30.2808 230.076 30.9626 230.359 31.7561C230.64 32.5526 230.783 33.4313 230.783 34.3894ZM228.504 34.3894C228.504 33.0052 228.194 31.906 227.575 31.0949C226.956 30.2837 226.114 29.8782 225.051 29.8782C223.987 29.8782 223.146 30.2837 222.527 31.0949C221.907 31.906 221.598 33.0052 221.598 34.3894C221.598 35.7737 221.907 36.8728 222.527 37.684C223.146 38.4951 223.987 38.9007 225.051 38.9007C226.114 38.9007 226.956 38.4951 227.575 37.684C228.194 36.8728 228.504 35.7737 228.504 34.3894Z" fill="#151515"/>
<path d="M233.86 28.6035C234.359 28.4771 235.022 28.3449 235.843 28.2009C236.664 28.0598 237.617 27.9893 238.697 27.9893C239.48 27.9893 240.138 28.0951 240.669 28.3096C241.201 28.5212 241.648 28.8327 242.007 29.2442C242.116 29.1648 242.288 29.0561 242.525 28.9121C242.758 28.771 243.047 28.6329 243.392 28.4977C243.737 28.3654 244.12 28.2449 244.543 28.1421C244.967 28.0392 245.42 27.9893 245.905 27.9893C246.842 27.9893 247.611 28.1274 248.207 28.4036C248.803 28.6799 249.267 29.0678 249.603 29.5733C249.939 30.0788 250.167 30.6754 250.284 31.369C250.401 32.0626 250.459 32.8179 250.459 33.6379V40.5356H248.274V34.111C248.274 33.3881 248.239 32.765 248.169 32.2448C248.099 31.7246 247.964 31.2926 247.769 30.9458C247.573 30.599 247.307 30.3433 246.971 30.1788C246.635 30.0142 246.2 29.9319 245.668 29.9319C244.932 29.9319 244.324 30.0318 243.848 30.2287C243.372 30.4256 243.045 30.602 242.872 30.7607C242.998 31.1692 243.091 31.6188 243.153 32.1067C243.214 32.5946 243.246 33.1059 243.246 33.6438V40.5414H241.061V34.1169C241.061 33.3939 241.023 32.7709 240.944 32.2507C240.865 31.7305 240.728 31.2985 240.532 30.9517C240.336 30.6049 240.071 30.3492 239.735 30.1846C239.399 30.0201 238.972 29.9378 238.455 29.9378C238.236 29.9378 238.002 29.9466 237.751 29.9613C237.5 29.976 237.26 29.9965 237.035 30.0201C236.807 30.0436 236.6 30.07 236.413 30.1024C236.226 30.1347 236.1 30.1582 236.036 30.1729V40.5444H233.851V28.6152L233.86 28.6035Z" fill="#151515"/>
<path d="M28.7365 34.7659C28.7365 33.9812 28.7365 33.1965 28.7365 32.4118C28.7686 32.0591 28.8066 31.7065 28.8358 31.3538C29.0432 28.7793 29.6158 26.2841 30.5828 23.8918C32.9346 18.0669 36.8522 13.6232 42.3124 10.5726C45.3302 8.88565 48.5701 7.88054 52.0028 7.51611C52.5491 7.45734 53.0954 7.41325 53.6388 7.36035C54.4188 7.36035 55.1988 7.36035 55.9789 7.36035C56.0577 7.37505 56.1337 7.39855 56.2126 7.40149C57.5448 7.46321 58.8623 7.63073 60.1624 7.91287C65.7628 9.12959 70.5276 11.8422 74.2904 16.186C79.9171 22.6839 81.968 30.2487 80.3583 38.7011C79.0027 45.8163 75.1756 51.3885 69.213 55.4442C65.7014 57.8336 61.8071 59.2178 57.5886 59.6674C57.051 59.7233 56.5164 59.7703 55.9789 59.8203H53.6388C53.5336 59.8056 53.4314 59.7791 53.3262 59.7733C50.7349 59.6351 48.2137 59.1208 45.786 58.2009C39.9694 55.9938 35.4616 52.1937 32.2948 46.8126C30.3987 43.5944 29.2769 40.1089 28.8884 36.3852C28.8329 35.8474 28.7861 35.3066 28.7365 34.7688V34.7659ZM73.2592 24.3121C67.1125 27.4039 60.9833 30.4839 54.7957 33.5932V12.8297C43.069 12.7944 34.0301 22.6634 34.1937 33.5345C34.7838 33.5345 35.3769 33.5345 35.967 33.5345C36.0693 33.5345 36.1715 33.5727 36.2738 33.5786C36.4315 33.5874 36.487 33.6902 36.4403 33.8107C36.414 33.8783 36.2942 33.9518 36.2183 33.9547C35.6427 33.9665 35.0643 33.9606 34.4888 33.9606C34.3865 33.9606 34.2843 33.9606 34.182 33.9606C34.3573 46.0044 44.6846 54.8564 55.3946 54.3127C55.3946 53.6103 55.3946 52.9079 55.3946 52.2055C55.3946 52.1173 55.3829 52.0086 55.4296 51.9498C55.4881 51.8734 55.5932 51.8205 55.6896 51.7999C55.7159 51.7941 55.8123 51.9322 55.8153 52.0057C55.8269 52.4965 55.8211 52.9873 55.8211 53.4781C55.8211 53.7514 55.8211 54.0247 55.8211 54.301C66.1309 53.9512 74.7871 45.349 75.3684 35.1421C75.2457 35.1421 75.123 35.1333 75.0003 35.1421C74.6439 35.1715 74.2875 35.2244 73.9311 35.2361C73.7967 35.242 73.5513 35.3596 73.5484 35.0686C73.5455 34.7923 73.7821 34.8452 73.9515 34.8188C73.9954 34.8129 74.0392 34.8188 74.083 34.8188C74.5241 34.7776 74.9653 34.7336 75.4269 34.6895C75.5992 31.0393 74.8806 27.5949 73.2592 24.3121Z" fill="#FDB90F"/>
<path d="M73.9489 34.8193C73.9928 34.8134 74.0366 34.8193 74.0804 34.8193C74.5216 34.7781 74.9627 34.734 75.4243 34.6899C75.5966 31.0398 74.878 27.5954 73.2566 24.3126C67.1099 27.4043 60.9807 30.4843 54.7931 33.5937V12.8302C43.0664 12.7949 34.0275 22.6638 34.1911 33.5349C34.7812 33.5349 35.3743 33.5349 35.9644 33.5349C36.0667 33.5349 36.1689 33.5732 36.2712 33.579C36.4289 33.5878 36.4844 33.6907 36.4377 33.8112C36.4114 33.8788 36.2916 33.9523 36.2157 33.9552C35.6401 33.967 35.0617 33.9611 34.4862 33.9611H34.1794C34.3547 46.0048 44.682 54.8569 55.392 54.3132C55.392 53.6108 55.392 52.9084 55.392 52.206C55.392 52.1178 55.3803 52.0091 55.427 51.9503C55.4855 51.8739 55.5906 51.821 55.687 51.8004C55.7133 51.7945 55.8097 51.9327 55.8127 52.0061C55.8244 52.4969 55.8185 52.9877 55.8185 53.4785C55.8185 53.7519 55.8185 54.0252 55.8185 54.3014C66.1283 53.9517 74.7845 45.3494 75.3658 35.1425C75.2431 35.1425 75.1204 35.1337 74.9977 35.1425C74.6413 35.1719 74.2849 35.2248 73.9285 35.2366C73.7941 35.2425 73.5487 35.36 73.5458 35.0691C73.5429 34.7928 73.7795 34.8457 73.9489 34.8193Z" fill="white"/>
<path d="M36.4724 34.4685H32.6745C32.3532 34.4685 32.0902 34.204 32.0902 33.8808C32.0902 33.5575 32.3532 33.293 32.6745 33.293H36.4724C36.7938 33.293 37.0567 33.5575 37.0567 33.8808C37.0567 34.204 36.7938 34.4685 36.4724 34.4685Z" fill="#FDB90F"/>
<path d="M77.3726 35.3514H73.5747C73.2534 35.3514 72.9904 35.0869 72.9904 34.7636C72.9904 34.4403 73.2534 34.1758 73.5747 34.1758H77.3726C77.694 34.1758 77.9569 34.4403 77.9569 34.7636C77.9569 35.0869 77.694 35.3514 77.3726 35.3514Z" fill="#FDB90F"/>
<path d="M55.1696 56.0695V52.2489C55.1696 51.9256 55.4325 51.6611 55.7539 51.6611C56.0753 51.6611 56.3382 51.9256 56.3382 52.2489V56.0695C56.3382 56.3928 56.0753 56.6573 55.7539 56.6573C55.4325 56.6573 55.1696 56.3928 55.1696 56.0695Z" fill="#FDB90F"/>
</svg>
